# xmcd
#
# Track frame offsets: 
#        150
#        18858
#        43051
#        60135
#        76921
#        104465
#        126026
#        147791
#        168310
#        186239
#        223302
#
# Disc length: 3240 seconds
#
# Revision: 0
# Processed by: cddbd v1.5.2PL0 Copyright (c) Steve Scherf et al.
# Submitted via: ExactAudioCopy v1.0b4
#
DISCID=900ca60b
DTITLE=Five Bluesmen - Black and White Blues
DYEAR=2015
DGENRE=Blues
TTITLE0=Black and White Blues
TTITLE1=Five Bluesmen Blues
TTITLE2=Rockabilly Boogie
TTITLE3=Believe in Good
TTITLE4=I'll Be There
TTITLE5=All Night Long
TTITLE6=New-York City Blues
TTITLE7=Blues is my Life
TTITLE8=Scolopendre Blues
TTITLE9=My Heart is Burning
TTITLE10=I'll Be There (radio edit)
EXTD=
EXTT0=
EXTT1=
EXTT2=
EXTT3=
EXTT4=
EXTT5=
EXTT6=
EXTT7=
EXTT8=
EXTT9=
EXTT10=
PLAYORDER=
